# xmcd CD database file
#
# Track frame offsets:
#	150
#	29293
#	61593
#	82543
#	113593
#	122118
#	156293
#	167368
#	215143
#	224893
#	283293
#	309443
#
# Disc length: 4484 seconds
#
# Revision: 0
# Processed by: cddbd v1.5.2PL0 Copyright (c) Steve Scherf et al.
# Submitted via: CDex 1.70beta2
#
DISCID=a411820c
DTITLE=Cavalanti, Daniele - Tononi, Tiziano - Udu calls
DYEAR=1995
DGENRE=Jazz
TTITLE0=opening: peace
TTITLE1=duo vamp - ba-lu-bolivar-ba-lues-are
TTITLE2=7/8 desert studio
TTITLE3=death don't have no mercy
TTITLE4=utar dance
TTITLE5=climbin' free - fast clave
TTITLE6=balafon speaks
TTITLE7=three west african tales: hausa, chief two bass drums
TTITLE8=6/8 frames
TTITLE9=a tribute to the trio 1) rainbow of china cymbals (for Stu Martin)
TTITLE10=i see you now, jim!
TTITLE11=closing: peace
EXTD=YEAR: 1995
EXTT0=
EXTT1=
EXTT2=
EXTT3=
EXTT4=
EXTT5=
EXTT6=
EXTT7=
EXTT8=
EXTT9=
EXTT10=
EXTT11=
PLAYORDER=
